<?xml version="1.0" encoding="UTF-8" standalone="no"?>
<!-- Created with Inkscape (http://www.inkscape.org/) -->

<svg
   xmlns:dc="http://purl.org/dc/elements/1.1/"
   xmlns:cc="http://creativecommons.org/ns#"
   xmlns:rdf="http://www.w3.org/1999/02/22-rdf-syntax-ns#"
   xmlns:svg="http://www.w3.org/2000/svg"
   xmlns="http://www.w3.org/2000/svg"
   xmlns:sodipodi="http://sodipodi.sourceforge.net/DTD/sodipodi-0.dtd"
   xmlns:inkscape="http://www.inkscape.org/namespaces/inkscape"
   width="64"
   height="64"
   viewBox="0 0 16.933333 16.933334"
   version="1.1"
   id="svg8"
   inkscape:version="0.92.3 (2405546, 2018-03-11)"
   sodipodi:docname="chair.svg">
  <defs
     id="defs2" />
  <sodipodi:namedview
     id="base"
     pagecolor="#ffffff"
     bordercolor="#666666"
     borderopacity="1.0"
     inkscape:pageopacity="0.0"
     inkscape:pageshadow="2"
     inkscape:zoom="3.959798"
     inkscape:cx="-0.71076825"
     inkscape:cy="41.252964"
     inkscape:document-units="mm"
     inkscape:current-layer="layer1"
     showgrid="false"
     units="px"
     inkscape:window-width="1366"
     inkscape:window-height="692"
     inkscape:window-x="-4"
     inkscape:window-y="-4"
     inkscape:window-maximized="1" />
  <metadata
     id="metadata5">
    <rdf:RDF>
      <cc:Work
         rdf:about="">
        <dc:format>image/svg+xml</dc:format>
        <dc:type
           rdf:resource="http://purl.org/dc/dcmitype/StillImage" />
        <dc:title></dc:title>
      </cc:Work>
    </rdf:RDF>
  </metadata>
  <g
     inkscape:label="Layer 1"
     inkscape:groupmode="layer"
     id="layer1"
     transform="translate(0,-280.06665)">
    <rect
       style="opacity:1;fill:#ffba80;fill-opacity:0.97872338;stroke:#000000;stroke-width:0.09065594;stroke-linejoin:round;stroke-miterlimit:4;stroke-dasharray:none;stroke-opacity:1"
       id="rect817"
       width="5.2812905"
       height="5.9700561"
       x="7.242012"
       y="282.24945" />
    <rect
       style="opacity:1;fill:#805757;fill-opacity:1;stroke:#000000;stroke-width:0.07890895;stroke-linejoin:round;stroke-miterlimit:4;stroke-dasharray:none;stroke-opacity:1"
       id="rect819-2"
       width="0.60898036"
       height="4.6839094"
       x="8.8263321"
       y="289.54898"
       ry="0.52164668"
       rx="0.10022607" />
    <rect
       style="opacity:1;fill:#805757;fill-opacity:1;stroke:#000000;stroke-width:0.07120176;stroke-linejoin:round;stroke-miterlimit:4;stroke-dasharray:none;stroke-opacity:1"
       id="rect819-2-8"
       width="0.60898036"
       height="3.8136199"
       x="3.9486635"
       y="290.41928"
       ry="0.42472258"
       rx="0.10022607" />
    <rect
       style="opacity:1;fill:#805757;fill-opacity:1;stroke:#000000;stroke-width:0.07890895;stroke-linejoin:round;stroke-miterlimit:4;stroke-dasharray:none;stroke-opacity:1"
       id="rect819-2-4"
       width="0.60898036"
       height="4.6839094"
       x="11.914238"
       y="288.21927"
       ry="0.52164668"
       rx="0.10022607" />
    <rect
       style="opacity:1;fill:#805757;fill-opacity:1;stroke:#000000;stroke-width:0.07890895;stroke-linejoin:round;stroke-miterlimit:4;stroke-dasharray:none;stroke-opacity:1"
       id="rect819-2-8-3"
       width="0.60898036"
       height="4.6839094"
       x="7.0365696"
       y="288.21927"
       ry="0.52164668"
       rx="0.10022607" />
    <path
       id="rect815"
       style="opacity:1;fill:#ffba80;fill-opacity:1;stroke:#000000;stroke-width:0.05613717;stroke-linejoin:round;stroke-miterlimit:4;stroke-dasharray:none;stroke-opacity:1"
       d="m 7.287363,288.15779 -2.280481,1.59267 c -0.00138,0.002 -0.00148,0.003 -0.0031,0.005 -0.00554,0.006 -0.015698,0.0181 -0.00414,0.004 -0.00343,0.004 -0.0069,0.009 -0.010335,0.0129 -0.00487,0.005 -0.00926,0.0102 -0.013952,0.0155 -7.35e-5,-3.2e-4 -2.191e-4,-0.001 -5.292e-4,-0.001 -0.00682,0.005 -0.01238,0.0113 -0.019637,0.0155 -0.00185,10e-4 -0.00412,0.002 -0.0062,0.002 -0.00913,0.016 -0.018447,0.024 -0.031523,0.0269 -0.00175,0.003 -0.00246,0.008 -0.00517,0.0103 -0.00533,0.006 -0.013552,0.007 -0.021188,0.009 -0.011168,0.01 -0.021929,0.0211 -0.036174,0.0253 -0.00563,0.002 0.010745,-0.008 0.00103,-0.002 0.00122,-0.002 0.00513,-0.008 0.00362,-0.006 -0.00548,0.006 -0.00989,0.0134 -0.015502,0.0196 -0.017314,0.0192 5.292e-4,-0.003 -0.0093,0.006 -0.026913,0.0252 -0.00475,0.0104 -0.041341,0.03 -0.034332,0.004 -0.015743,8e-4 -0.00878,-5.3e-4 -0.00204,0.004 -0.00302,0.009 -0.0062,0.0119 -0.00756,0.007 -0.019966,0.007 -0.029973,0.01 -8.996e-4,-2e-4 -0.00322,1.5e-4 -0.00259,-5.3e-4 -6.35e-4,4.7e-4 -0.00143,6.3e-4 -0.00206,10e-4 -0.01606,0.0163 -0.013795,0.0175 -0.039791,0.0243 -0.00283,7.4e-4 0.00982,-0.006 0.00723,-0.005 -0.0061,0.003 -0.00679,0.004 -0.0093,0.006 -0.00346,0.006 -0.0048,0.0116 -0.010853,0.017 -0.00541,0.005 -0.013679,0.004 -0.021188,0.005 -0.00175,0.002 -0.00332,0.005 -0.00517,0.007 -0.00127,0.001 -0.00284,0.002 -0.00465,0.003 -0.00201,7.7e-4 -0.00415,0.001 -0.0062,0.002 -2.646e-4,1.6e-4 -1.876e-4,3.4e-4 -5.292e-4,5.3e-4 -0.00159,3.1e-4 6.57e-5,-2e-5 -0.0031,0.003 -7.143e-4,7.4e-4 -0.00138,0.002 -0.00206,0.002 -0.0018,0.002 -0.00327,0.002 -0.00414,0.002 v 5.3e-4 c 0,0 -5.291e-4,0 -5.291e-4,0 -3.969e-4,7.7e-4 -5.027e-4,0.001 -0.00103,0.002 -0.00238,0.003 -0.00531,0.006 -0.0093,0.007 -0.00164,3.2e-4 5.53e-5,3e-5 -0.0031,0.002 -0.00362,0.002 -0.0071,0.005 -0.010853,0.007 -5.027e-4,2e-4 -0.00106,3.2e-4 -0.00156,5.3e-4 -1.99e-4,2.9e-4 -0.00138,5.8e-4 -0.00103,5.3e-4 -0.00209,10e-4 -0.00384,0.002 -0.00568,0.002 -0.00164,1.3e-4 -3.44e-4,0 -0.0031,0.002 -0.00678,0.004 -0.00303,10e-4 -0.0093,0.006 -0.00116,6.1e-4 -0.00246,10e-4 -0.00362,0.002 -0.00262,0.002 -0.00549,0.002 -0.00827,0.003 -3.175e-4,2.9e-4 -7.408e-4,2.6e-4 -0.00103,5.3e-4 -3.968e-4,3.1e-4 -6.085e-4,4.7e-4 -0.00103,10e-4 -0.00246,0.002 -0.0057,0.003 -0.00827,0.005 -0.00127,3.4e-4 -0.00235,0.001 -0.00362,0.002 -0.00265,0.002 -0.00515,0.003 -0.00775,0.005 -0.00201,10e-4 -0.00409,0.003 -0.0062,0.004 l -0.055754,0.0392 c -8.466e-4,10e-4 -0.00198,0.003 -0.00206,0.003 -9.261e-4,9.2e-4 -0.00222,0.002 -0.0031,0.003 -5.027e-4,3.2e-4 -5.027e-4,7.4e-4 -0.00103,0.001 H 4.496311 c -4.762e-4,4.2e-4 -0.00114,6.1e-4 -0.00156,10e-4 0,0 -5.292e-4,5.3e-4 -5.292e-4,5.3e-4 0,0 -5.292e-4,5.3e-4 -5.292e-4,5.3e-4 -8.202e-4,0.001 -0.00169,0.003 -0.0031,0.004 -5.291e-4,3.9e-4 -0.00101,8.7e-4 -0.00156,10e-4 -0.0018,0.003 -0.00297,0.004 -0.00568,0.006 -0.0014,6.9e-4 -0.00325,10e-4 -0.00465,0.002 0,0 -5.292e-4,5.3e-4 -5.292e-4,5.3e-4 -6.879e-4,6.1e-4 -0.00146,0.002 -0.00206,0.002 -4.497e-4,6.9e-4 -9.789e-4,10e-4 -0.00156,0.002 -0.010181,0.009 3.704e-4,-8.9e-4 -0.00414,0.003 1.315e-4,-2.5e-4 1.944e-4,-10e-4 0,-10e-4 -9.261e-4,9.6e-4 -0.00153,0.002 -0.00259,0.003 -0.00743,0.006 -0.00398,0.003 -0.00465,0.003 -6.41e-5,3.4e-4 1.339e-4,7.1e-4 0,0.001 -0.00193,0.004 -0.00353,0.004 -0.00672,0.006 -7.937e-4,-5.6e-4 -2.503e-4,-5.6e-4 -0.00206,5.3e-4 -0.00106,6.3e-4 -0.00206,10e-4 -0.0031,0.002 -4.233e-4,2.4e-4 -0.00114,7.7e-4 -0.00156,0.001 -0.00111,8.7e-4 -0.00246,0.002 -0.00362,0.003 h -5.291e-4 c -8.202e-4,3.7e-4 -0.00124,9.3e-4 -0.00206,0.001 -6.614e-4,3.7e-4 -0.00143,3.7e-4 -0.00206,5.3e-4 l -5.292e-4,5.2e-4 c -0.00172,9e-4 -0.00331,0.002 -0.00517,0.003 0,0 -5.292e-4,5.3e-4 -5.292e-4,5.3e-4 -6.085e-4,6.8e-4 -0.00146,8.4e-4 -0.00206,0.002 -2.646e-4,2.1e-4 -2.032e-4,9e-4 -5.292e-4,10e-4 -5.556e-4,5.8e-4 -0.0034,0.004 -0.00414,0.004 -2.911e-4,-8e-5 2.257e-4,-0.001 0,-0.001 -4.498e-4,4.3e-4 -6.615e-4,0.001 -0.00103,0.001 -0.00185,0.003 -0.00222,0.003 -0.00414,0.004 -0.00225,4.8e-4 2.521e-4,0.006 -0.00517,0.004 -0.00161,5.3e-4 -0.00243,8.2e-4 0,-10e-4 3.44e-4,-2.7e-4 -7.143e-4,7.1e-4 -0.00103,10e-4 -0.00196,0.002 -0.00342,0.004 -0.0062,0.005 -8.466e-4,6.9e-4 -0.00159,0.002 -0.00259,0.002 -0.00148,6.3e-4 -0.00307,4.2e-4 -0.00465,0.001 -2.587e-4,2.6e-4 -7.408e-4,3.4e-4 -0.00103,5.3e-4 0,0 -5.292e-4,0 -5.292e-4,0 -0.00185,10e-4 -4.498e-4,3.4e-4 -0.00414,0.003 0,0 0,-5.3e-4 0,-5.3e-4 -0.00295,0.002 -0.00235,0.004 -0.00259,0.002 -0.00138,10e-4 -0.00696,0.006 -0.00775,0.006 -9.261e-4,4.2e-4 -0.00206,4.7e-4 -0.0031,5.3e-4 -6.085e-4,5.3e-4 -4.497e-4,0.002 -0.00206,0.003 -0.00132,7.4e-4 -0.00127,7.1e-4 -0.00206,5.3e-4 -0.00317,0.003 -0.00659,0.005 -0.010335,0.007 -7.408e-4,6.1e-4 -0.00132,0.001 -0.00206,0.002 -4.498e-4,3.7e-4 -0.00103,7.9e-4 -0.00156,0.001 -0.0018,0.003 -0.00164,0.003 -0.00414,0.005 -0.00151,0.002 -0.00262,0.002 -0.00362,0.003 2.911e-4,-7e-5 -2.315e-4,7.9e-4 -5.291e-4,10e-4 -4.763e-4,1.7e-4 -0.00135,9e-4 -0.00156,0.001 -4.498e-4,3.7e-4 -0.00212,0.002 -0.00156,10e-4 -0.00592,0.003 -0.00325,0.002 0,-10e-4 -7.673e-4,10e-4 -0.00159,0.003 -0.00259,0.004 -7.409e-4,8.3e-4 -0.00156,0.002 -0.00259,0.002 -8.732e-4,-4.2e-4 9.525e-4,-0.002 0.00156,-0.002 -0.00122,9.3e-4 -0.00381,0.004 -0.0062,0.005 -7.409e-4,8.7e-4 -0.00132,0.002 -0.00206,0.003 -0.00101,3.7e-4 -0.00238,3.7e-4 -0.00362,5.3e-4 -6.615e-4,9e-4 -0.0014,0.002 -0.00206,0.003 -5.292e-4,2.5e-4 -9.79e-4,8.7e-4 -0.00156,10e-4 -5.292e-4,1.5e-4 -0.00101,-1.2e-4 -0.00156,0 -3.439e-4,7.4e-4 -6.879e-4,10e-4 -0.00103,0.002 -0.00143,5.8e-4 -0.00269,10e-4 -0.00414,0.002 v -5.3e-4 c -3.704e-4,1.7e-4 -0.00111,8e-4 -0.00103,5.3e-4 1.503e-4,-7.4e-4 0.00616,-0.008 -0.00206,0.002 0.00143,-0.002 3.439e-4,3e-4 -0.00206,0.002 -0.00175,0.001 -0.00209,0.006 -0.00568,0.005 -7.144e-4,1.6e-4 -0.00217,3.4e-4 -0.00362,5.3e-4 -0.00114,10e-4 -0.00196,0.002 -0.0031,0.003 -0.00272,0.001 -0.00201,4.5e-4 -0.00465,0.002 -3.175e-4,2.5e-4 -0.00114,8.2e-4 -0.00103,5.3e-4 -3.969e-4,4.3e-4 -0.00116,6.1e-4 -0.00156,10e-4 6.615e-4,-10e-4 2.44e-5,4e-4 -0.00259,0.002 -0.0057,0.004 4.498e-4,-0.002 -0.00414,0.002 -5.027e-4,5e-4 -0.00103,10e-4 -0.00156,10e-4 -0.00209,0.002 -0.00441,0.004 -0.00723,0.005 0,0 -5.291e-4,0 -5.291e-4,0 3.175e-4,-6.1e-4 0.00127,-0.002 0.00103,-0.002 -0.00164,0.004 -0.00578,0.006 -0.00982,0.008 -0.00204,10e-4 -0.00296,0.002 -0.00517,0.003 -5.821e-4,2.5e-4 -9.26e-4,9.8e-4 -0.00156,10e-4 -2.911e-4,3.2e-4 -7.144e-4,4.8e-4 -0.00103,0.001 -0.00265,0.002 -0.00555,0.003 -0.00878,0.004 0,0 -5.291e-4,0 -5.291e-4,0 -0.00114,0.002 -8.467e-4,0.003 -0.00568,0.008 -0.00101,6.3e-4 -0.00209,5.5e-4 -0.0031,0.002 2.911e-4,-3.5e-4 8.996e-4,-0.001 5.292e-4,-0.001 -0.00116,7.5e-4 -0.00201,0.002 -0.0031,0.002 -6.086e-4,3.4e-4 -8.996e-4,10e-4 -0.00156,10e-4 -5.821e-4,4.2e-4 -0.00148,5.8e-4 -0.00206,0.001 -8.202e-4,0.002 -0.00505,0.003 -0.00775,0.003 0,0 0,5.3e-4 0,5.3e-4 0,0 -5.292e-4,5.3e-4 -5.292e-4,5.3e-4 -2.074e-4,2.9e-4 -2.617e-4,5.3e-4 -5.292e-4,0.001 -0.00642,0.007 -0.00233,10e-4 -0.00206,10e-4 -4.763e-4,5.8e-4 -3.969e-4,10e-4 -0.00103,0.002 -0.00127,5.5e-4 -0.00276,9.8e-4 -0.00414,0.002 -3.175e-4,-5.6e-4 2.545e-4,-0.005 -5.292e-4,0.002 -0.00464,0.003 -0.00338,0.003 -0.00878,0.004 -7.673e-4,1.6e-4 0.00412,-0.002 0.00156,-0.002 1.22e-4,-4e-4 3.969e-4,-9.3e-4 5.292e-4,-0.002 l -0.00103,5.3e-4 c -8.202e-4,0.002 -0.0014,0.004 -0.0031,0.006 -0.00108,9.5e-4 -0.010078,0.002 -0.00362,0 -0.0018,0.002 -0.00349,0.003 -0.00517,0.005 5.292e-4,-3.7e-4 -7.144e-4,10e-4 -0.00103,0.002 -0.00177,0.003 -0.00337,0.005 -0.0062,0.007 -6.615e-4,5.2e-4 -0.00188,9.7e-4 -0.00259,0.001 0,0 -5.292e-4,0 -5.292e-4,0 0,0 -5.292e-4,0 -5.292e-4,0 -0.00298,0.002 -0.00348,0.002 -0.00414,0.002 -1.783e-4,2e-4 -6.879e-4,5.8e-4 -0.00103,10e-4 -9.26e-4,10e-4 -0.00198,0.003 -0.0031,0.003 -9.26e-4,3.9e-4 0.00526,-0.006 0.00103,-0.003 -0.0013,0.004 -0.00138,0.006 -0.00517,0.008 -9.79e-4,4e-4 0.00114,-0.002 0.00206,-0.002 6.35e-4,-3.2e-4 -3.175e-4,0.002 -0.00103,0.002 -5.028e-4,-6e-5 0.00361,-0.007 -0.00103,0.001 -0.00116,0.002 -0.00394,0.004 -0.00672,0.006 -4.498e-4,2.6e-4 -6.35e-4,6.3e-4 -0.00103,0.001 -0.00101,0.002 -0.00243,0.004 -0.00362,0.005 -8.467e-4,8.2e-4 -0.00175,0.002 -0.00259,0.003 -3.705e-4,2.1e-4 -7.673e-4,8.5e-4 -0.00103,5.3e-4 -2.641e-4,4.8e-4 -6.879e-4,0.001 -0.00103,0.001 -0.00719,0.008 6.615e-4,-0.002 -0.00517,0.004 -4.498e-4,2.9e-4 -5.292e-4,8.4e-4 -0.00103,10e-4 -0.00976,0.003 -0.00431,5.8e-4 -0.00259,-5.3e-4 0.00101,-8.2e-4 0.0037,-0.008 -0.0031,0.002 0.00148,-0.002 -0.00294,0.003 -0.0031,0.001 -1.741e-4,5.5e-4 -2.22e-4,7.4e-4 -5.292e-4,10e-4 -8.731e-4,7.4e-4 -0.00204,10e-4 -0.0031,0.002 -4.498e-4,1.3e-4 -3.704e-4,3.2e-4 -0.00103,5.3e-4 -0.00135,0.002 -0.00214,0.004 -0.00414,0.004 -0.00308,0.002 -0.00286,0.003 -0.00672,0.005 -3.44e-4,0 -6.085e-4,-2.1e-4 -0.00103,0 4.234e-4,-0.002 0.00164,-0.006 -5.291e-4,0.002 -0.00222,0.003 -0.00317,0.004 -0.0062,0.006 -7.937e-4,4.7e-4 -0.00257,0.002 -0.00259,10e-4 -2.33e-5,-0.002 0.00424,-10e-4 0.0031,-0.004 -0.00111,0.004 -0.0036,0.004 -0.00517,0.005 0,0 -5.291e-4,5.3e-4 -5.291e-4,5.3e-4 0,0 0,5.3e-4 0,5.3e-4 -8.732e-4,0.002 -0.0014,0.003 -0.00259,0.004 -7.673e-4,7.9e-4 -0.00333,0.003 -0.0031,0.001 2.106e-4,-0.001 0.00114,-0.002 0.00206,-0.002 -2.911e-4,5e-5 7.937e-4,1.8e-4 0.00103,0 0.00259,-0.002 0.00222,-0.002 0.00259,-0.003 -8.467e-4,3.9e-4 -0.00127,0.002 -0.00259,0.002 3.705e-4,-5.3e-4 8.203e-4,-0.002 5.292e-4,-0.002 -0.00446,0.008 1.934e-4,0.005 -0.00672,0.008 0.00555,-0.003 -9.525e-4,9.5e-4 -0.00206,0.002 -2.911e-4,2e-4 -6.879e-4,4e-4 -0.00103,5.3e-4 -3.439e-4,1.2e-4 -7.144e-4,-1.3e-4 -0.00103,0 -7.408e-4,2.3e-4 -0.00289,0.001 -0.00206,0.001 -6.879e-4,4e-4 -0.00138,10e-4 -0.00206,10e-4 -3.175e-4,2.4e-4 -6.879e-4,6.1e-4 -0.00103,5.3e-4 -3.175e-4,-8e-5 3.175e-4,-9.5e-4 0,-0.001 l -5.292e-4,5.3e-4 c -0.00268,0.005 -0.00529,0.006 -0.00878,0.008 -8.996e-4,1.5e-4 -0.00169,3.7e-4 -0.00259,5.3e-4 -2.138e-4,3.4e-4 -2.646e-4,7.7e-4 -5.292e-4,10e-4 -5.291e-4,6.4e-4 -0.00143,10e-4 -0.00206,0.002 -0.00222,10e-4 -7.673e-4,7.5e-4 -0.00568,0.002 -1.375e-4,5e-5 0.00281,-0.002 0.00156,-0.001 -0.00206,0.001 -0.00316,9.2e-4 -0.00414,0.001 -2.617e-4,3e-5 -3.44e-4,3.7e-4 -0.00103,5.3e-4 -2.313e-4,6e-5 -5.292e-4,7e-5 -0.00103,5.3e-4 -8.731e-4,6e-4 -0.00169,10e-4 -0.00259,0.002 h -5.292e-4 c -0.011504,0.003 -0.00326,0.001 -0.00259,5.3e-4 -0.00284,0.003 -0.00333,0.003 -0.00775,0.004 -3.969e-4,4.5e-4 -0.00103,0.002 -0.00206,0.002 -8.996e-4,3.7e-4 -0.00167,6.1e-4 -0.00259,10e-4 0,0 -5.291e-4,0 -5.291e-4,0 0,0 0,5.3e-4 0,5.3e-4 -5.556e-4,2.5e-4 -0.00138,1.3e-4 -0.00103,0 -0.00193,0.004 -0.00156,0.005 -0.00827,0.006 -8.732e-4,2e-4 -9.79e-4,4.5e-4 -0.00103,0 6.085e-4,-7.1e-4 0.00283,-0.003 0.00206,-0.002 -0.00108,8.2e-4 -0.00214,0.001 -0.0031,0.002 2.49e-4,-2.1e-4 -8.466e-4,2.5e-4 -0.00103,5.3e-4 -0.00404,0.003 -0.00494,0.003 -0.00672,0.004 0,0 -5.292e-4,0 -5.292e-4,0 0,0 0,5.3e-4 0,5.3e-4 -2.619e-4,3.1e-4 -7.673e-4,4.7e-4 -0.00103,10e-4 -0.0013,0.001 -0.00259,0.003 -0.00414,0.004 -0.00101,5.3e-4 -0.00196,3.7e-4 -0.0031,5.3e-4 -5.027e-4,0.001 1.042e-4,-0.002 -5.292e-4,0.001 -6.35e-4,2.5e-4 -0.00122,4.8e-4 -0.00206,10e-4 -3.969e-4,4.2e-4 -4.66e-5,0.001 -0.00103,0.002 -0.00167,0.002 -0.00361,0.004 -0.00568,0.006 0,0 -5.291e-4,0 -5.291e-4,0 -3.704e-4,9.3e-4 -8.467e-4,0.002 -0.00156,0.003 -7.673e-4,6.3e-4 -0.00198,6.6e-4 -0.0031,10e-4 5.821e-4,-5e-5 -0.00214,0.001 -0.00156,0.001 -5.027e-4,2.9e-4 -9.79e-4,5.3e-4 -0.00156,10e-4 9.261e-4,-1.7e-4 0.0043,-10e-4 -0.00259,0.003 -0.0014,7.4e-4 -0.00309,8e-4 -0.00465,0.001 9.79e-4,-6.4e-4 0.00249,-0.001 0.0031,-0.002 8.466e-4,-0.001 6.35e-4,-0.003 0.00103,-0.005 4.234e-4,0.006 -9.789e-4,0.006 -0.00775,0.0103 -6.085e-4,4.2e-4 -0.00917,-5.3e-4 -0.0093,0 -2.646e-4,0.001 -6.879e-4,-10e-4 -0.00103,-5.3e-4 l -0.037724,0.0264 5.2358561,0.0615 3.3248377,-2.32222 z m -2.541447,1.78594 c 0.00172,-0.002 0.00417,-0.002 0.0062,-0.003 0.00143,-8.8e-4 0.0056,-0.004 0.00414,-0.003 -0.0035,0.002 -0.00705,0.004 -0.010335,0.006 z m 0.1844847,-0.13695 c -0.0028,0.004 -0.00527,0.009 -0.00723,0.014 0.00175,-0.002 0.00371,-0.003 0.00517,-0.005 0.00188,-0.003 0.00375,-0.0117 0.00206,-0.009 z m -0.022738,0.0315 c -0.00364,0.004 -0.00898,0.006 -0.01292,0.009 0.00456,-0.002 0.00602,-0.003 0.00878,-0.005 0.00183,-0.001 0.0028,-0.003 0.00414,-0.005 z m -0.1095541,0.0579 c -0.00206,0.003 -0.00416,0.007 -0.00568,0.0109 0.00172,-0.002 0.00405,-0.004 0.00568,-0.006 8.202e-4,-9e-4 0.00101,-0.005 5.291e-4,-0.005 z m -0.7580924,0.53072 c -0.00156,0.003 -0.00217,0.004 -0.00259,0.005 7.673e-4,-4.2e-4 0.00156,-7.1e-4 0.00206,-0.002 5.292e-4,-6.6e-4 8.996e-4,-0.003 5.3e-4,-0.003 z"
       inkscape:connector-curvature="0" />
  </g>
</svg>
