<?xml version="1.0" encoding="UTF-8" standalone="no"?>
<!-- Created with Inkscape (http://www.inkscape.org/) -->

<svg
   xmlns:dc="http://purl.org/dc/elements/1.1/"
   xmlns:cc="http://creativecommons.org/ns#"
   xmlns:rdf="http://www.w3.org/1999/02/22-rdf-syntax-ns#"
   xmlns:svg="http://www.w3.org/2000/svg"
   xmlns="http://www.w3.org/2000/svg"
   xmlns:sodipodi="http://sodipodi.sourceforge.net/DTD/sodipodi-0.dtd"
   xmlns:inkscape="http://www.inkscape.org/namespaces/inkscape"
   width="80"
   height="80"
   viewBox="0 0 21.166666 21.166667"
   version="1.1"
   id="svg6561"
   inkscape:version="0.92.3 (2405546, 2018-03-11)"
   sodipodi:docname="table.svg">
  <defs
     id="defs6555" />
  <sodipodi:namedview
     id="base"
     pagecolor="#ffffff"
     bordercolor="#666666"
     borderopacity="1.0"
     inkscape:pageopacity="0.0"
     inkscape:pageshadow="2"
     inkscape:zoom="3.959798"
     inkscape:cx="-12.723883"
     inkscape:cy="32.933794"
     inkscape:document-units="mm"
     inkscape:current-layer="layer1"
     showgrid="false"
     units="px"
     inkscape:window-width="1366"
     inkscape:window-height="692"
     inkscape:window-x="-4"
     inkscape:window-y="-4"
     inkscape:window-maximized="1" />
  <metadata
     id="metadata6558">
    <rdf:RDF>
      <cc:Work
         rdf:about="">
        <dc:format>image/svg+xml</dc:format>
        <dc:type
           rdf:resource="http://purl.org/dc/dcmitype/StillImage" />
        <dc:title></dc:title>
      </cc:Work>
    </rdf:RDF>
  </metadata>
  <g
     inkscape:label="Layer 1"
     inkscape:groupmode="layer"
     id="layer1"
     transform="translate(0,-275.83332)"
     style="display:inline">
    <rect
       style="opacity:0.981;fill:#ffca9e;fill-opacity:1;stroke:#000000;stroke-width:0.15000001;stroke-linejoin:round;stroke-miterlimit:4;stroke-dasharray:none;stroke-opacity:1"
       id="rect6688"
       width="1.1358954"
       height="5.2117562"
       x="3.5590796"
       y="285.40701"
       ry="0.33266526" />
    <rect
       style="opacity:0.981;fill:#ffca9e;fill-opacity:1;stroke:#000000;stroke-width:0.14774656;stroke-linejoin:round;stroke-miterlimit:4;stroke-dasharray:none;stroke-opacity:1"
       id="rect6688-9"
       width="1.1314064"
       height="4.911087"
       x="7.0380754"
       y="283.26883"
       ry="0.32274514" />
    <rect
       style="opacity:0.981;fill:#ffca9e;fill-opacity:1;stroke:#000000;stroke-width:0.15000001;stroke-linejoin:round;stroke-miterlimit:4;stroke-dasharray:none;stroke-opacity:1"
       id="rect6688-97"
       width="1.1358954"
       height="5.2117562"
       x="13.113965"
       y="285.40701"
       ry="0.33266526" />
    <rect
       style="opacity:0.981;fill:#ffca9e;fill-opacity:1;stroke:#000000;stroke-width:0.15000001;stroke-linejoin:round;stroke-miterlimit:4;stroke-dasharray:none;stroke-opacity:1"
       id="rect6688-9-7"
       width="1.0644963"
       height="4.7279453"
       x="16.659864"
       y="283.45197"
       ry="0.33266526" />
    <path
       id="path6744"
       style="fill:#805757;fill-opacity:0;stroke:#000000;stroke-width:0.282722px;stroke-linecap:butt;stroke-linejoin:miter;stroke-opacity:1"
       d="m 6.0800778,283.23428 -3.4392943,2.67451 c 13.9128545,0.20507 12.9166215,0.14522 12.9166215,0.14522 l 3.230746,-2.77027 z"
       inkscape:connector-curvature="0"
       sodipodi:nodetypes="ccccc" />
    <path
       style="opacity:0.981;fill:#805757;fill-opacity:0;stroke:none;stroke-width:0.19319166;stroke-linejoin:round;stroke-miterlimit:4;stroke-dasharray:none;stroke-opacity:1"
       d="m 12.216536,285.98896 c -1.322984,-0.0258 -4.0440718,-0.0683 -6.0468615,-0.0946 -2.0027895,-0.0263 -3.6486705,-0.055 -3.657513,-0.0638 -0.00884,-0.009 0.7621327,-0.63797 1.7132782,-1.39806 l 1.7293555,-1.38198 6.4717388,0.0419 c 3.559457,0.023 6.48175,0.0507 6.493984,0.0616 0.01224,0.0108 -0.240544,0.24019 -0.561731,0.5097 -0.321187,0.26951 -1.082893,0.91759 -1.692679,1.44017 l -1.108703,0.95014 -0.467722,-0.009 c -0.257246,-0.005 -1.550163,-0.0302 -2.873147,-0.0559 z"
       id="path7291"
       inkscape:connector-curvature="0" />
    <path
       style="opacity:0.981;fill:#805757;fill-opacity:0;stroke:none;stroke-width:0.19319166;stroke-linejoin:round;stroke-miterlimit:4;stroke-dasharray:none;stroke-opacity:1"
       d="m 12.216536,285.98896 c -1.322984,-0.0258 -4.0440718,-0.0683 -6.0468615,-0.0946 -2.0027895,-0.0263 -3.6486705,-0.055 -3.657513,-0.0638 -0.00884,-0.009 0.7621327,-0.63797 1.7132782,-1.39806 l 1.7293555,-1.38198 6.4717388,0.0419 c 3.559457,0.023 6.48175,0.0507 6.493984,0.0616 0.01224,0.0108 -0.240544,0.24019 -0.561731,0.5097 -0.321187,0.26951 -1.082893,0.91759 -1.692679,1.44017 l -1.108703,0.95014 -0.467722,-0.009 c -0.257246,-0.005 -1.550163,-0.0302 -2.873147,-0.0559 z"
       id="path7293"
       inkscape:connector-curvature="0" />
    <path
       style="opacity:0.981;fill:#805757;fill-opacity:0;stroke:none;stroke-width:0.19319166;stroke-linejoin:round;stroke-miterlimit:4;stroke-dasharray:none;stroke-opacity:1"
       d="m 12.216536,285.98896 c -1.322984,-0.0258 -4.0440718,-0.0683 -6.0468615,-0.0946 -2.0027895,-0.0263 -3.6486705,-0.055 -3.657513,-0.0638 -0.00884,-0.009 0.7621327,-0.63797 1.7132782,-1.39806 l 1.7293555,-1.38198 6.4717388,0.0419 c 3.559457,0.023 6.48175,0.0507 6.493984,0.0616 0.01224,0.0108 -0.240544,0.24019 -0.561731,0.5097 -0.321187,0.26951 -1.082893,0.91759 -1.692679,1.44017 l -1.108703,0.95014 -0.467722,-0.009 c -0.257246,-0.005 -1.550163,-0.0302 -2.873147,-0.0559 z"
       id="path7295"
       inkscape:connector-curvature="0" />
    <path
       style="opacity:0.981;fill:#805757;fill-opacity:0;stroke:none;stroke-width:0.19319166;stroke-linejoin:round;stroke-miterlimit:4;stroke-dasharray:none;stroke-opacity:1"
       d="m 12.216536,285.98896 c -1.322984,-0.0258 -4.0440718,-0.0683 -6.0468615,-0.0946 -2.0027895,-0.0263 -3.6486705,-0.055 -3.657513,-0.0638 -0.00884,-0.009 0.7621327,-0.63797 1.7132782,-1.39806 l 1.7293555,-1.38198 6.4717388,0.0419 c 3.559457,0.023 6.48175,0.0507 6.493984,0.0616 0.01224,0.0108 -0.240544,0.24019 -0.561731,0.5097 -0.321187,0.26951 -1.082893,0.91759 -1.692679,1.44017 l -1.108703,0.95014 -0.467722,-0.009 c -0.257246,-0.005 -1.550163,-0.0302 -2.873147,-0.0559 z"
       id="path7297"
       inkscape:connector-curvature="0" />
    <path
       style="opacity:0.981;fill:#805757;fill-opacity:0;stroke:none;stroke-width:0.19319166;stroke-linejoin:round;stroke-miterlimit:4;stroke-dasharray:none;stroke-opacity:1"
       d="m 12.216536,285.98896 c -1.322984,-0.0258 -4.0440718,-0.0683 -6.0468615,-0.0946 -2.0027895,-0.0263 -3.6486705,-0.055 -3.657513,-0.0638 -0.00884,-0.009 0.7621327,-0.63797 1.7132782,-1.39806 l 1.7293555,-1.38198 6.4717388,0.0419 c 3.559457,0.023 6.48175,0.0507 6.493984,0.0616 0.01224,0.0108 -0.240544,0.24019 -0.561731,0.5097 -0.321187,0.26951 -1.082893,0.91759 -1.692679,1.44017 l -1.108703,0.95014 -0.467722,-0.009 c -0.257246,-0.005 -1.550163,-0.0302 -2.873147,-0.0559 z"
       id="path7299"
       inkscape:connector-curvature="0" />
    <path
       style="opacity:0.981;fill:#805757;fill-opacity:0;stroke:none;stroke-width:0.19319166;stroke-linejoin:round;stroke-miterlimit:4;stroke-dasharray:none;stroke-opacity:1"
       d="m 12.216536,285.98896 c -1.322984,-0.0258 -4.0440718,-0.0683 -6.0468615,-0.0946 -2.0027895,-0.0263 -3.6486705,-0.055 -3.657513,-0.0638 -0.00884,-0.009 0.7621327,-0.63797 1.7132782,-1.39806 l 1.7293555,-1.38198 6.4717388,0.0419 c 3.559457,0.023 6.48175,0.0507 6.493984,0.0616 0.01224,0.0108 -0.240544,0.24019 -0.561731,0.5097 -0.321187,0.26951 -1.082893,0.91759 -1.692679,1.44017 l -1.108703,0.95014 -0.467722,-0.009 c -0.257246,-0.005 -1.550163,-0.0302 -2.873147,-0.0559 z"
       id="path7301"
       inkscape:connector-curvature="0" />
    <path
       style="opacity:0.981;fill:#805757;fill-opacity:0;stroke:none;stroke-width:0.19319166;stroke-linejoin:round;stroke-miterlimit:4;stroke-dasharray:none;stroke-opacity:1"
       d="m 12.216536,285.98896 c -1.322984,-0.0258 -4.0440718,-0.0683 -6.0468615,-0.0946 -2.0027895,-0.0263 -3.6486705,-0.055 -3.657513,-0.0638 -0.00884,-0.009 0.7621327,-0.63797 1.7132782,-1.39806 l 1.7293555,-1.38198 6.4717388,0.0419 c 3.559457,0.023 6.48175,0.0507 6.493984,0.0616 0.01224,0.0108 -0.240544,0.24019 -0.561731,0.5097 -0.321187,0.26951 -1.082893,0.91759 -1.692679,1.44017 l -1.108703,0.95014 -0.467722,-0.009 c -0.257246,-0.005 -1.550163,-0.0302 -2.873147,-0.0559 z"
       id="path7303"
       inkscape:connector-curvature="0" />
    <path
       id="path7305"
       transform="matrix(0.26458333,0,0,0.26458333,0,275.83332)"
       style="opacity:0.981;fill:#805757;fill-opacity:0;stroke:none;stroke-width:0.73017323;stroke-linejoin:round;stroke-miterlimit:4;stroke-dasharray:none;stroke-opacity:1"
       d="m 18.052734,37.382812 -7.800781,6.25 -7.8007811,6.25 3.5097656,0.07031 3.5078125,0.07031 0.072266,9.105468 c 0.068816,8.676746 0.095351,9.121502 0.5625004,9.462891 0.57131,0.41751 2.481897,0.474383 3.189453,0.0957 0.469044,-0.251023 0.488281,-0.622623 0.488281,-9.34375 v -9.082031 h 4.417969 4.419922 v 3.326172 c 0,3.938879 0.147256,4.25 2.003906,4.25 0.647827,0 1.417043,-0.174413 1.728515,-0.392579 0.533217,-0.373477 0.560547,-0.564908 0.560547,-3.828124 v -3.435547 l 4.736329,0.166015 c 2.604296,0.09102 6.804261,0.165624 9.333984,0.166016 h 4.599609 l 0.07227,8.859375 c 0.0821,10.038448 -0.02155,9.576172 2.158203,9.576172 2.224389,0 2.082031,0.642289 2.082031,-9.351563 v -8.830078 h 2.146485 c 0.780184,0 1.385542,0.04131 1.746093,0.107422 0.06824,-0.09581 0.202238,-0.169922 0.414063,-0.169922 h 0.292969 c 0.01931,-0.01159 0.03601,-0.0282 0.05664,-0.03711 0.04551,-0.01965 0.107019,-0.01605 0.167969,-0.0039 0.0308,0.0061 0.05678,0.01487 0.08594,0.02344 0.05235,-0.01538 0.104717,-0.03033 0.15039,-0.0332 0.03098,-0.002 0.04706,0.01409 0.07422,0.01758 0.07735,-0.01975 0.10632,-0.02641 0.203125,-0.04297 0.02608,-0.0016 0.05224,-0.0033 0.07813,-0.0039 0.319182,-0.248837 0.680142,-0.5411 1.208984,-0.994141 1.053879,-0.902824 1.982923,-1.642578 2.064453,-1.642578 0.08153,0 0.148438,2.008424 0.148438,4.462891 0,5.200951 0.06959,5.386719 2.003906,5.386719 0.647826,0 1.417033,-0.174413 1.728516,-0.392579 0.554655,-0.388492 0.560065,-0.470717 0.572265,-6.882812 l 0.01367,-6.488281 3.773438,-3.15625 3.77539,-3.15625 -11.93164,-0.154297 c -6.56209,-0.08426 -18.385124,-0.169553 -26.273438,-0.189453 z m 0.25586,1.261719 h 2.154297 2.15625 V 43.822266 49 l -8.017579,-0.0039 C 10.191619,48.993949 6.4440144,48.903284 6.2734375,48.794922 6.0687367,48.664883 8.0607754,46.90549 12.134766,43.621094 Z m 8.478515,0 h 15.972657 15.972656 v 3.78125 3.783203 l -2.083984,1.773438 c -1.145892,0.975832 -2.139535,1.754942 -2.208985,1.732422 C 53.817967,49.513296 46.845737,49.318529 39.160156,49.287109 34.021005,49.266098 29.168287,49.177857 28.375,49.091797 l -1.443359,-0.15625 -0.07227,-5.144531 z m 36.238282,0.253907 h 2.197265 c 1.208395,0 2.088979,0.09473 1.957032,0.210937 -0.131951,0.116209 -1.065608,0.911516 -2.076172,1.767578 -1.010561,0.856063 -1.893105,1.556641 -1.958985,1.556641 -0.06588,0 -0.11914,-0.795306 -0.11914,-1.767578 z" />
    <path
       id="path7307"
       transform="matrix(0.26458333,0,0,0.26458333,0,275.83332)"
       style="opacity:0.981;fill:#805757;fill-opacity:0;stroke:none;stroke-width:0.73017323;stroke-linejoin:round;stroke-miterlimit:4;stroke-dasharray:none;stroke-opacity:1"
       d="m 18.052734,37.382812 -7.800781,6.25 -7.8007811,6.25 3.5097656,0.07031 3.5078125,0.07031 0.072266,9.105468 c 0.068816,8.676746 0.095351,9.121502 0.5625004,9.462891 0.57131,0.41751 2.481897,0.474383 3.189453,0.0957 0.469044,-0.251023 0.488281,-0.622623 0.488281,-9.34375 v -9.082031 h 4.417969 4.419922 v 3.326172 c 0,3.938879 0.147256,4.25 2.003906,4.25 0.647827,0 1.417043,-0.174413 1.728515,-0.392579 0.533217,-0.373477 0.560547,-0.564908 0.560547,-3.828124 v -3.435547 l 4.736329,0.166015 c 2.604296,0.09102 6.804261,0.165624 9.333984,0.166016 h 4.599609 l 0.07227,8.859375 c 0.0821,10.038448 -0.02155,9.576172 2.158203,9.576172 2.224389,0 2.082031,0.642289 2.082031,-9.351563 v -8.830078 h 2.146485 c 0.780184,0 1.385542,0.04131 1.746093,0.107422 0.06824,-0.09581 0.202238,-0.169922 0.414063,-0.169922 h 0.292969 c 0.01931,-0.01159 0.03601,-0.0282 0.05664,-0.03711 0.04551,-0.01965 0.107019,-0.01605 0.167969,-0.0039 0.0308,0.0061 0.05678,0.01487 0.08594,0.02344 0.05235,-0.01538 0.104717,-0.03033 0.15039,-0.0332 0.03098,-0.002 0.04706,0.01409 0.07422,0.01758 0.07735,-0.01975 0.10632,-0.02641 0.203125,-0.04297 0.02608,-0.0016 0.05224,-0.0033 0.07813,-0.0039 0.319182,-0.248837 0.680142,-0.5411 1.208984,-0.994141 1.053879,-0.902824 1.982923,-1.642578 2.064453,-1.642578 0.08153,0 0.148438,2.008424 0.148438,4.462891 0,5.200951 0.06959,5.386719 2.003906,5.386719 0.647826,0 1.417033,-0.174413 1.728516,-0.392579 0.554655,-0.388492 0.560065,-0.470717 0.572265,-6.882812 l 0.01367,-6.488281 3.773438,-3.15625 3.77539,-3.15625 -11.93164,-0.154297 c -6.56209,-0.08426 -18.385124,-0.169553 -26.273438,-0.189453 z m 0.25586,1.261719 h 2.154297 2.15625 V 43.822266 49 l -8.017579,-0.0039 C 10.191619,48.993949 6.4440144,48.903284 6.2734375,48.794922 6.0687367,48.664883 8.0607754,46.90549 12.134766,43.621094 Z m 8.478515,0 h 15.972657 15.972656 v 3.78125 3.783203 l -2.083984,1.773438 c -1.145892,0.975832 -2.139535,1.754942 -2.208985,1.732422 C 53.817967,49.513296 46.845737,49.318529 39.160156,49.287109 34.021005,49.266098 29.168287,49.177857 28.375,49.091797 l -1.443359,-0.15625 -0.07227,-5.144531 z m 36.238282,0.253907 h 2.197265 c 1.208395,0 2.088979,0.09473 1.957032,0.210937 -0.131951,0.116209 -1.065608,0.911516 -2.076172,1.767578 -1.010561,0.856063 -1.893105,1.556641 -1.958985,1.556641 -0.06588,0 -0.11914,-0.795306 -0.11914,-1.767578 z" />
    <path
       style="opacity:0.981;fill:#805757;fill-opacity:0;stroke:none;stroke-width:0.19319166;stroke-linejoin:round;stroke-miterlimit:4;stroke-dasharray:none;stroke-opacity:1"
       d="m 12.216536,285.98896 c -1.322984,-0.0258 -4.0440718,-0.0683 -6.0468615,-0.0946 -2.0027895,-0.0263 -3.6486705,-0.055 -3.657513,-0.0638 -0.00884,-0.009 0.7621327,-0.63797 1.7132782,-1.39806 l 1.7293555,-1.38198 6.4717388,0.0419 c 3.559457,0.023 6.48175,0.0507 6.493984,0.0616 0.01224,0.0108 -0.240544,0.24019 -0.561731,0.5097 -0.321187,0.26951 -1.082893,0.91759 -1.692679,1.44017 l -1.108703,0.95014 -0.467722,-0.009 c -0.257246,-0.005 -1.550163,-0.0302 -2.873147,-0.0559 z"
       id="path7309"
       inkscape:connector-curvature="0" />
    <path
       style="opacity:0.981;fill:#805757;fill-opacity:0;stroke:none;stroke-width:0.19319166;stroke-linejoin:round;stroke-miterlimit:4;stroke-dasharray:none;stroke-opacity:1"
       d="m 12.216536,285.98896 c -1.322984,-0.0258 -4.0440718,-0.0683 -6.0468615,-0.0946 -2.0027895,-0.0263 -3.6486705,-0.055 -3.657513,-0.0638 -0.00884,-0.009 0.7621327,-0.63797 1.7132782,-1.39806 l 1.7293555,-1.38198 6.4717388,0.0419 c 3.559457,0.023 6.48175,0.0507 6.493984,0.0616 0.01224,0.0108 -0.240544,0.24019 -0.561731,0.5097 -0.321187,0.26951 -1.082893,0.91759 -1.692679,1.44017 l -1.108703,0.95014 -0.467722,-0.009 c -0.257246,-0.005 -1.550163,-0.0302 -2.873147,-0.0559 z"
       id="path7311"
       inkscape:connector-curvature="0" />
    <path
       style="opacity:0.981;fill:#805757;fill-opacity:0;stroke:none;stroke-width:0.19319166;stroke-linejoin:round;stroke-miterlimit:4;stroke-dasharray:none;stroke-opacity:1"
       d="m 12.216536,285.98896 c -1.322984,-0.0258 -4.0440718,-0.0683 -6.0468615,-0.0946 -2.0027895,-0.0263 -3.6486705,-0.055 -3.657513,-0.0638 -0.00884,-0.009 0.7621327,-0.63797 1.7132782,-1.39806 l 1.7293555,-1.38198 6.4717388,0.0419 c 3.559457,0.023 6.48175,0.0507 6.493984,0.0616 0.01224,0.0108 -0.240544,0.24019 -0.561731,0.5097 -0.321187,0.26951 -1.082893,0.91759 -1.692679,1.44017 l -1.108703,0.95014 -0.467722,-0.009 c -0.257246,-0.005 -1.550163,-0.0302 -2.873147,-0.0559 z"
       id="path7313"
       inkscape:connector-curvature="0" />
    <path
       style="opacity:0.981;fill:#805757;fill-opacity:0;stroke:none;stroke-width:0.19319166;stroke-linejoin:round;stroke-miterlimit:4;stroke-dasharray:none;stroke-opacity:1"
       d="m 12.056174,285.98798 c -3.0932142,-0.059 -7.8229857,-0.12864 -8.8071329,-0.12966 -0.4575902,-4.8e-4 -0.7073064,-0.0249 -0.6815015,-0.0666 0.022401,-0.0362 0.7897395,-0.66777 1.7051973,-1.40339 l 1.6644683,-1.33749 6.5005798,0.0418 c 3.575319,0.023 6.507898,0.0479 6.516843,0.0555 0.0089,0.008 -0.366903,0.33158 -0.835217,0.72012 -0.468315,0.38854 -1.240351,1.04021 -1.715636,1.44815 l -0.864155,0.74171 -0.472193,-0.0108 c -0.259706,-0.006 -1.614769,-0.0326 -3.011253,-0.0592 z"
       id="path7315"
       inkscape:connector-curvature="0" />
    <path
       style="opacity:0.981;fill:#805757;fill-opacity:0;stroke:none;stroke-width:0.19319166;stroke-linejoin:round;stroke-miterlimit:4;stroke-dasharray:none;stroke-opacity:1"
       d="m 12.056174,285.98798 c -3.0932142,-0.059 -7.8229857,-0.12864 -8.8071329,-0.12966 -0.4575902,-4.8e-4 -0.7073064,-0.0249 -0.6815015,-0.0666 0.022401,-0.0362 0.7897395,-0.66777 1.7051973,-1.40339 l 1.6644683,-1.33749 6.5005798,0.0418 c 3.575319,0.023 6.507898,0.0479 6.516843,0.0555 0.0089,0.008 -0.366903,0.33158 -0.835217,0.72012 -0.468315,0.38854 -1.240351,1.04021 -1.715636,1.44815 l -0.864155,0.74171 -0.472193,-0.0108 c -0.259706,-0.006 -1.614769,-0.0326 -3.011253,-0.0592 z"
       id="path7317"
       inkscape:connector-curvature="0" />
    <path
       style="opacity:0.981;fill:#805757;fill-opacity:0;stroke:none;stroke-width:0.19319166;stroke-linejoin:round;stroke-miterlimit:4;stroke-dasharray:none;stroke-opacity:1"
       d="m 12.056174,285.98798 c -3.0932142,-0.059 -7.8229857,-0.12864 -8.8071329,-0.12966 -0.4575902,-4.8e-4 -0.7073064,-0.0249 -0.6815015,-0.0666 0.022401,-0.0362 0.7897395,-0.66777 1.7051973,-1.40339 l 1.6644683,-1.33749 6.5005798,0.0418 c 3.575319,0.023 6.507898,0.0479 6.516843,0.0555 0.0089,0.008 -0.366903,0.33158 -0.835217,0.72012 -0.468315,0.38854 -1.240351,1.04021 -1.715636,1.44815 l -0.864155,0.74171 -0.472193,-0.0108 c -0.259706,-0.006 -1.614769,-0.0326 -3.011253,-0.0592 z"
       id="path7319"
       inkscape:connector-curvature="0" />
    <path
       style="opacity:0.981;fill:#805757;fill-opacity:0;stroke:none;stroke-width:0.19319166;stroke-linejoin:round;stroke-miterlimit:4;stroke-dasharray:none;stroke-opacity:1"
       d="m 12.056174,285.98798 c -3.0932142,-0.059 -7.8229857,-0.12864 -8.8071329,-0.12966 -0.4575902,-4.8e-4 -0.7073064,-0.0249 -0.6815015,-0.0666 0.022401,-0.0362 0.7897395,-0.66777 1.7051973,-1.40339 l 1.6644683,-1.33749 6.5005798,0.0418 c 3.575319,0.023 6.507898,0.0479 6.516843,0.0555 0.0089,0.008 -0.366903,0.33158 -0.835217,0.72012 -0.468315,0.38854 -1.240351,1.04021 -1.715636,1.44815 l -0.864155,0.74171 -0.472193,-0.0108 c -0.259706,-0.006 -1.614769,-0.0326 -3.011253,-0.0592 z"
       id="path7321"
       inkscape:connector-curvature="0" />
    <path
       style="opacity:0.981;fill:#805757;fill-opacity:0;stroke:none;stroke-width:0.19319166;stroke-linejoin:round;stroke-miterlimit:4;stroke-dasharray:none;stroke-opacity:1"
       d="m 12.056174,285.98798 c -3.0932142,-0.059 -7.8229857,-0.12864 -8.8071329,-0.12966 -0.4575902,-4.8e-4 -0.7073064,-0.0249 -0.6815015,-0.0666 0.022401,-0.0362 0.7897395,-0.66777 1.7051973,-1.40339 l 1.6644683,-1.33749 6.5005798,0.0418 c 3.575319,0.023 6.507898,0.0479 6.516843,0.0555 0.0089,0.008 -0.366903,0.33158 -0.835217,0.72012 -0.468315,0.38854 -1.240351,1.04021 -1.715636,1.44815 l -0.864155,0.74171 -0.472193,-0.0108 c -0.259706,-0.006 -1.614769,-0.0326 -3.011253,-0.0592 z"
       id="path7323"
       inkscape:connector-curvature="0" />
    <path
       style="opacity:0.981;fill:#805757;fill-opacity:0;stroke:none;stroke-width:0.19319166;stroke-linejoin:round;stroke-miterlimit:4;stroke-dasharray:none;stroke-opacity:1"
       d="m 12.056174,285.98798 c -3.0932142,-0.059 -7.8229857,-0.12864 -8.8071329,-0.12966 -0.4575902,-4.8e-4 -0.7073064,-0.0249 -0.6815015,-0.0666 0.022401,-0.0362 0.7897395,-0.66777 1.7051973,-1.40339 l 1.6644683,-1.33749 6.5005798,0.0418 c 3.575319,0.023 6.507898,0.0479 6.516843,0.0555 0.0089,0.008 -0.366903,0.33158 -0.835217,0.72012 -0.468315,0.38854 -1.240351,1.04021 -1.715636,1.44815 l -0.864155,0.74171 -0.472193,-0.0108 c -0.259706,-0.006 -1.614769,-0.0326 -3.011253,-0.0592 z"
       id="path7325"
       inkscape:connector-curvature="0" />
    <path
       style="opacity:1;fill:#805757;fill-opacity:0;stroke:none;stroke-width:0.19319166;stroke-linejoin:round;stroke-miterlimit:4;stroke-dasharray:none;stroke-opacity:1"
       d="m 12.056174,285.98798 c -3.0932142,-0.059 -7.8229857,-0.12864 -8.8071329,-0.12966 -0.4575902,-4.8e-4 -0.7073064,-0.0249 -0.6815015,-0.0666 0.022401,-0.0362 0.7897395,-0.66777 1.7051973,-1.40339 l 1.6644683,-1.33749 6.5005798,0.0418 c 3.575319,0.023 6.507898,0.0479 6.516843,0.0555 0.0089,0.008 -0.366903,0.33158 -0.835217,0.72012 -0.468315,0.38854 -1.240351,1.04021 -1.715636,1.44815 l -0.864155,0.74171 -0.472193,-0.0108 c -0.259706,-0.006 -1.614769,-0.0326 -3.011253,-0.0592 z"
       id="path7327"
       inkscape:connector-curvature="0" />
    <path
       style="opacity:1;fill:#805757;fill-opacity:0;stroke:none;stroke-width:0.19319166;stroke-linejoin:round;stroke-miterlimit:4;stroke-dasharray:none;stroke-opacity:1"
       d="m 12.216536,285.98896 c -1.322984,-0.0258 -4.0440718,-0.0683 -6.0468615,-0.0946 -2.0027895,-0.0263 -3.6486705,-0.055 -3.657513,-0.0638 -0.00884,-0.009 0.7621327,-0.63797 1.7132782,-1.39806 l 1.7293555,-1.38198 6.4717388,0.0419 c 3.559457,0.023 6.48175,0.0507 6.493984,0.0616 0.01224,0.0108 -0.240544,0.24019 -0.561731,0.5097 -0.321187,0.26951 -1.082893,0.91759 -1.692679,1.44017 l -1.108703,0.95014 -0.467722,-0.009 c -0.257246,-0.005 -1.550163,-0.0302 -2.873147,-0.0559 z"
       id="path7329"
       inkscape:connector-curvature="0" />
    <path
       style="opacity:1;fill:#805757;fill-opacity:1;stroke:none;stroke-width:0.19319166;stroke-linejoin:round;stroke-miterlimit:4;stroke-dasharray:none;stroke-opacity:1"
       d="m 12.216536,285.98896 c -1.322984,-0.0258 -4.0440718,-0.0683 -6.0468615,-0.0946 -2.0027895,-0.0263 -3.6486705,-0.055 -3.657513,-0.0638 -0.00884,-0.009 0.7621327,-0.63797 1.7132782,-1.39806 l 1.7293555,-1.38198 6.5552608,0.0586 c 3.559389,0.0318 6.410462,0.0449 6.410462,0.0449 0.01224,0.0108 -0.240544,0.24019 -0.561731,0.5097 -0.321187,0.26951 -1.082893,0.91759 -1.692679,1.44017 l -1.108703,0.95014 -0.467722,-0.009 c -0.257246,-0.005 -1.550163,-0.0302 -2.873147,-0.0559 z"
       id="path7331"
       inkscape:connector-curvature="0"
       sodipodi:nodetypes="cscscsccscscc" />
  </g>
</svg>
