<?xml version="1.0" encoding="UTF-8" standalone="no"?>
<!-- Created with Inkscape (http://www.inkscape.org/) -->

<svg
   xmlns:dc="http://purl.org/dc/elements/1.1/"
   xmlns:cc="http://creativecommons.org/ns#"
   xmlns:rdf="http://www.w3.org/1999/02/22-rdf-syntax-ns#"
   xmlns:svg="http://www.w3.org/2000/svg"
   xmlns="http://www.w3.org/2000/svg"
   xmlns:sodipodi="http://sodipodi.sourceforge.net/DTD/sodipodi-0.dtd"
   xmlns:inkscape="http://www.inkscape.org/namespaces/inkscape"
   width="80"
   height="80"
   viewBox="0 0 80 80"
   id="svg4765"
   version="1.1"
   inkscape:version="0.92.3 (2405546, 2018-03-11)"
   sodipodi:docname="team-lead.svg"
   inkscape:export-filename="/home/nicklatkovich/dev/space-manager/src/assets/images/unknown-people.png"
   inkscape:export-xdpi="90"
   inkscape:export-ydpi="90">
  <defs
     id="defs4767">
    <inkscape:path-effect
       effect="spiro"
       id="path-effect5885"
       is_visible="true" />
  </defs>
  <sodipodi:namedview
     id="base"
     pagecolor="#ffffff"
     bordercolor="#666666"
     borderopacity="1.0"
     inkscape:pageopacity="0.0"
     inkscape:pageshadow="2"
     inkscape:zoom="8"
     inkscape:cx="47.586993"
     inkscape:cy="40.648936"
     inkscape:document-units="px"
     inkscape:current-layer="layer1"
     showgrid="false"
     units="px"
     inkscape:snap-bbox="true"
     inkscape:bbox-paths="true"
     inkscape:bbox-nodes="true"
     inkscape:snap-bbox-edge-midpoints="true"
     inkscape:snap-bbox-midpoints="true"
     inkscape:object-paths="true"
     inkscape:snap-intersection-paths="true"
     inkscape:object-nodes="true"
     inkscape:snap-smooth-nodes="true"
     inkscape:snap-midpoints="true"
     inkscape:snap-object-midpoints="true"
     inkscape:snap-center="true"
     inkscape:snap-text-baseline="true"
     inkscape:snap-page="true"
     inkscape:window-width="1920"
     inkscape:window-height="1001"
     inkscape:window-x="-9"
     inkscape:window-y="-9"
     inkscape:window-maximized="1"
     inkscape:measure-start="0,0"
     inkscape:measure-end="0,0"
     inkscape:pagecheckerboard="true"
     showguides="false" />
  <metadata
     id="metadata4770">
    <rdf:RDF>
      <cc:Work
         rdf:about="">
        <dc:format>image/svg+xml</dc:format>
        <dc:type
           rdf:resource="http://purl.org/dc/dcmitype/StillImage" />
        <dc:title></dc:title>
      </cc:Work>
    </rdf:RDF>
  </metadata>
  <g
     inkscape:label="body"
     inkscape:groupmode="layer"
     id="layer1"
     transform="translate(0,-972.36221)"
     style="display:inline">
    <circle
       style="fill:#ffba80;fill-opacity:1;stroke:none;stroke-width:16;stroke-linecap:round;stroke-linejoin:round;stroke-miterlimit:4;stroke-dasharray:none;stroke-dashoffset:0;stroke-opacity:1"
       id="path5313"
       cx="40"
       cy="988.36218"
       r="16" />
    <rect
       style="fill:#7cb1d7;fill-opacity:1;stroke:none;stroke-width:16;stroke-linecap:round;stroke-linejoin:round;stroke-miterlimit:4;stroke-dasharray:none;stroke-dashoffset:0;stroke-opacity:1"
       id="rect5317"
       width="54.674507"
       height="81.571457"
       x="12.662746"
       y="1006.3622"
       ry="18.392857" />
    <path
       style="fill:none;stroke:#3d250b;stroke-width:1.00770044px;stroke-linecap:butt;stroke-linejoin:miter;stroke-opacity:1"
       d="m 23.998704,985.30692 c 31.923778,0.0412 7.05698,-12.70026 31.778994,-0.62473"
       id="path6093"
       inkscape:connector-curvature="0" />
    <path
       style="fill:#3d250b;fill-opacity:1;stroke:none;stroke-width:1.00939178px;stroke-linecap:butt;stroke-linejoin:miter;stroke-opacity:1"
       d="m 24,985.30846 1.801224,-0.0117 1.343332,-0.0289 2.14753,-0.0884 2.056899,-0.1441 1.549719,-0.15705 3.475472,-0.57137 1.495212,-0.38907 1.766799,-0.6606 1.398229,-0.81707 1.425658,-1.61988 0.595023,-1.02113 0.679785,-0.31684 0.476552,0.0314 0.759112,0.18806 0.658152,0.22653 1.236168,0.49832 1.536285,0.68225 0.973848,0.4506 c 0,0 0.879516,0.41376 1.108095,0.52247 0.228578,0.10871 1.22601,0.58584 1.22601,0.58584 0,0 0.867524,0.4177 1.072098,0.51662 0.204575,0.0989 1.379539,0.66853 1.379539,0.66853 l 1.704483,0.82158 v 0 l -0.273145,-0.9894 -0.572435,-1.11815 -0.471233,-1.17633 -0.87975,-1.70335 -1.539822,-1.90804 -1.044817,-1.15167 -2.068441,-1.59738 -2.78289,-1.45338 -2.512503,-0.76618 -2.309973,-0.32863 -2.522379,-0.11986 -2.885603,0.4891 -1.927872,0.60619 -1.182265,0.5637 c 0,0 -2.229482,1.28862 -2.229482,1.28862 l -1.05098,0.72366 -1.714169,1.61184 c 0,0 -1.047147,1.42701 -1.047147,1.42701 0,0 -1.042165,1.42088 -1.042165,1.42088 l -0.761164,1.50128 -0.52757,1.66624 z"
       id="path6101"
       inkscape:connector-curvature="0" />
    <path
       style="fill:none;stroke:none;stroke-width:1px;stroke-linecap:butt;stroke-linejoin:miter;stroke-opacity:1"
       d="m 24.294117,985.30846 1.0196,-3.29554 0.754033,-1.51791 2.047801,-2.84543 1.68009,-1.61099 2.075413,-1.45756 2.300978,-1.11968 1.898643,-0.60918 3.924862,-0.48996 h 0.0089 l 2.754963,0.23972 1.779427,0.41754 1.576261,0.5574 2.123255,1.06929 2.646573,1.98921 2.034261,2.28784 0.988352,1.52823 1.663578,4.23109 v 0"
       id="path6095"
       inkscape:connector-curvature="0" />
  </g>
  <g
     inkscape:groupmode="layer"
     id="layer7"
     inkscape:label="shirt"
     style="display:inline"
     sodipodi:insensitive="true">
    <path
       style="fill:#7cb1d7;fill-opacity:1;stroke:none;stroke-width:0.30000001;stroke-linecap:butt;stroke-linejoin:miter;stroke-miterlimit:4;stroke-dasharray:none;stroke-opacity:1"
       d="m 32.514285,31.386409 c -0.376938,1.859227 -0.376938,1.859227 -0.376938,1.859227 l 1.010269,0.754337 2.236911,0.639177 2.125075,0.331271 2.580542,0.14067 1.879095,-0.07173 0.917987,-0.09452 0.704333,-0.102951 1.123896,-0.228372 1.860996,-0.613543 0.903408,-0.463353 0.0024,-1.11873 0.0013,-0.573742 8.26e-4,-0.378668 -1.064586,0.04336 -0.940717,0.197342 -1.876481,0.196829 -1.540481,0.07107 -2.06211,0.02589 -1.909831,-0.03136 -2.174363,-0.131161 -1.253677,-0.15459 -1.263671,-0.277056 z"
       id="path5956"
       inkscape:connector-curvature="0" />
    <path
       style="fill:none;stroke:#000000;stroke-width:0.69999999;stroke-linecap:butt;stroke-linejoin:miter;stroke-miterlimit:4;stroke-dasharray:none;stroke-opacity:1"
       d="m 32.356749,30.056305 c 0,0 -2.078225,1.927704 7.643252,1.943668 9.721477,0.01596 7.119734,-1.671372 7.119734,-1.671372"
       id="path5891"
       inkscape:connector-curvature="0"
       sodipodi:nodetypes="csc" />
    <path
       style="display:inline;fill:none;stroke:#000000;stroke-width:0.60000002;stroke-linecap:butt;stroke-linejoin:miter;stroke-miterlimit:4;stroke-dasharray:none;stroke-opacity:1"
       d="m 32.178056,30.69249 c -0.05286,3.3152 -0.05286,3.3152 -0.05286,3.3152"
       id="path5893-7"
       inkscape:connector-curvature="0" />
    <path
       style="display:inline;fill:none;stroke:#000000;stroke-width:0.5;stroke-linecap:butt;stroke-linejoin:miter;stroke-miterlimit:4;stroke-dasharray:none;stroke-opacity:1"
       d="m 47.509339,30.473421 c -0.05286,3.3152 -0.05286,3.3152 -0.05286,3.3152"
       id="path5893"
       inkscape:connector-curvature="0" />
    <path
       style="fill:none;stroke:#000000;stroke-width:0.40000001;stroke-linecap:butt;stroke-linejoin:miter;stroke-miterlimit:4;stroke-dasharray:none;stroke-opacity:1"
       d="m 40.090144,35.111091 c 0,55.334401 0,55.334401 0,55.334401"
       id="path5981"
       inkscape:connector-curvature="0" />
    <path
       style="fill:#212f39;fill-opacity:1;stroke:#000000;stroke-width:0.30000001;stroke-linecap:butt;stroke-linejoin:miter;stroke-miterlimit:4;stroke-dasharray:none;stroke-opacity:1"
       d="m 38.346124,35.016021 c 0.403876,-1.016048 -1.016788,-2.646192 2.051088,-3.02098 3.067876,-0.374788 2.923449,2.919382 2.03102,2.99706"
       id="path5983"
       inkscape:connector-curvature="0" />
    <path
       style="fill:none;stroke:#000000;stroke-width:0.69999999;stroke-linecap:butt;stroke-linejoin:miter;stroke-miterlimit:4;stroke-dasharray:none;stroke-opacity:1"
       d="m 32.132763,33.533121 c 3.263036,1.816202 11.423971,2.373625 15.35353,-3.83e-4"
       id="path5891-8"
       inkscape:connector-curvature="0"
       sodipodi:nodetypes="cc" />
    <path
       style="fill:none;stroke:#000000;stroke-width:0.40000001;stroke-linecap:butt;stroke-linejoin:miter;stroke-miterlimit:4;stroke-dasharray:none;stroke-opacity:1"
       d="m 40.090144,35.111091 0.576318,-1.620412 -0.26925,-1.495638"
       id="path5985"
       inkscape:connector-curvature="0" />
    <path
       style="fill:none;stroke:#50310e;stroke-width:1.5;stroke-linecap:butt;stroke-linejoin:miter;stroke-miterlimit:4;stroke-dasharray:none;stroke-opacity:1"
       d="m 54.718355,34.91756 c 0,45.08244 0,45.08244 0,45.08244"
       id="path5987"
       inkscape:connector-curvature="0" />
    <path
       style="display:inline;fill:none;stroke:#50310e;stroke-width:1.5;stroke-linecap:butt;stroke-linejoin:miter;stroke-miterlimit:4;stroke-dasharray:none;stroke-opacity:1"
       d="m 24.385079,34.91756 c 0,45.08244 0,45.08244 0,45.08244"
       id="path5987-5"
       inkscape:connector-curvature="0" />
  </g>
  <g
     inkscape:groupmode="layer"
     id="layer8"
     inkscape:label="buttons"
     sodipodi:insensitive="true">
    <circle
       style="fill:#999999;fill-opacity:1;fill-rule:nonzero;stroke:#c6c6c6;stroke-width:0.2;stroke-linecap:butt;stroke-linejoin:round;stroke-miterlimit:4;stroke-dasharray:none;stroke-opacity:1"
       id="path6007"
       cx="41.692471"
       cy="33.599972"
       r="0.40000001" />
    <circle
       style="fill:#999999;fill-opacity:1;fill-rule:nonzero;stroke:#c6c6c6;stroke-width:0.2;stroke-linecap:butt;stroke-linejoin:round;stroke-miterlimit:4;stroke-dasharray:none;stroke-opacity:1"
       id="path6007-6"
       cx="41.5"
       cy="37.5"
       r="0.40000001" />
    <circle
       style="fill:#999999;fill-opacity:1;fill-rule:nonzero;stroke:#c6c6c6;stroke-width:0.2;stroke-linecap:butt;stroke-linejoin:round;stroke-miterlimit:4;stroke-dasharray:none;stroke-opacity:1"
       id="path6007-6-8"
       cx="41.5"
       cy="41.5"
       r="0.40000001" />
    <circle
       style="fill:#999999;fill-opacity:1;fill-rule:nonzero;stroke:#c6c6c6;stroke-width:0.2;stroke-linecap:butt;stroke-linejoin:round;stroke-miterlimit:4;stroke-dasharray:none;stroke-opacity:1"
       id="path6007-6-2"
       cx="41.5"
       cy="45.5"
       r="0.40000001" />
    <circle
       style="fill:#999999;fill-opacity:1;fill-rule:nonzero;stroke:#c6c6c6;stroke-width:0.2;stroke-linecap:butt;stroke-linejoin:round;stroke-miterlimit:4;stroke-dasharray:none;stroke-opacity:1"
       id="path6007-6-1"
       cx="41.5"
       cy="49.5"
       r="0.40000001" />
    <circle
       style="fill:#999999;fill-opacity:1;fill-rule:nonzero;stroke:#c6c6c6;stroke-width:0.2;stroke-linecap:butt;stroke-linejoin:round;stroke-miterlimit:4;stroke-dasharray:none;stroke-opacity:1"
       id="path6007-6-3"
       cx="41.5"
       cy="53.5"
       r="0.40000001" />
    <circle
       style="fill:#999999;fill-opacity:1;fill-rule:nonzero;stroke:#c6c6c6;stroke-width:0.2;stroke-linecap:butt;stroke-linejoin:round;stroke-miterlimit:4;stroke-dasharray:none;stroke-opacity:1"
       id="path6007-6-6"
       cx="41.5"
       cy="57.5"
       r="0.40000001" />
    <circle
       style="fill:#999999;fill-opacity:1;fill-rule:nonzero;stroke:#c6c6c6;stroke-width:0.2;stroke-linecap:butt;stroke-linejoin:round;stroke-miterlimit:4;stroke-dasharray:none;stroke-opacity:1"
       id="path6007-6-5"
       cx="41.5"
       cy="61.5"
       r="0.40000001" />
    <circle
       style="fill:#999999;fill-opacity:1;fill-rule:nonzero;stroke:#c6c6c6;stroke-width:0.2;stroke-linecap:butt;stroke-linejoin:round;stroke-miterlimit:4;stroke-dasharray:none;stroke-opacity:1"
       id="path6007-6-7"
       cx="41.5"
       cy="65.5"
       r="0.40000001" />
    <circle
       style="fill:#999999;fill-opacity:1;fill-rule:nonzero;stroke:#c6c6c6;stroke-width:0.2;stroke-linecap:butt;stroke-linejoin:round;stroke-miterlimit:4;stroke-dasharray:none;stroke-opacity:1"
       id="path6007-6-27"
       cx="41.5"
       cy="69.5"
       r="0.40000001" />
    <circle
       style="fill:#999999;fill-opacity:1;fill-rule:nonzero;stroke:#c6c6c6;stroke-width:0.2;stroke-linecap:butt;stroke-linejoin:round;stroke-miterlimit:4;stroke-dasharray:none;stroke-opacity:1"
       id="path6007-6-72"
       cx="41.5"
       cy="73.5"
       r="0.40000001" />
    <circle
       style="fill:#999999;fill-opacity:1;fill-rule:nonzero;stroke:#c6c6c6;stroke-width:0.2;stroke-linecap:butt;stroke-linejoin:round;stroke-miterlimit:4;stroke-dasharray:none;stroke-opacity:1"
       id="path6007-6-62"
       cx="41.5"
       cy="77.5"
       r="0.40000001" />
  </g>
</svg>
